<?xml version="1.0" encoding="UTF-8" standalone="no"?>
<svg
   xmlns:dc="http://purl.org/dc/elements/1.1/"
   xmlns:cc="http://creativecommons.org/ns#"
   xmlns:rdf="http://www.w3.org/1999/02/22-rdf-syntax-ns#"
   xmlns:svg="http://www.w3.org/2000/svg"
   xmlns="http://www.w3.org/2000/svg"
   xmlns:sodipodi="http://sodipodi.sourceforge.net/DTD/sodipodi-0.dtd"
   xmlns:inkscape="http://www.inkscape.org/namespaces/inkscape"
   width="246"
   height="65"
   viewBox="0 0 196.8 52"
   version="1.1"
   id="svg2"
   inkscape:version="0.48.5 r10040"
   sodipodi:docname="LOGO_Shield-color.svg">
  <metadata
     id="metadata69">
    <rdf:RDF>
      <cc:Work
         rdf:about="">
        <dc:format>image/svg+xml</dc:format>
        <dc:type
           rdf:resource="http://purl.org/dc/dcmitype/StillImage" />
        <dc:title></dc:title>
      </cc:Work>
    </rdf:RDF>
  </metadata>
  <defs
     id="defs67">
  
    
  
      
    <clipPath
   id="id3">
      <path
   id="path2428"
   d="M 0,792 612,792 612,0 0,0 0,792 z"
   inkscape:connector-curvature="0" />

    </clipPath>

    <clipPath
   id="id2">
      <rect
   id="rect2425"
   y="0"
   x="0"
   height="792"
   width="612" />

    </clipPath>

    <style
   id="style2422"
   type="text/css" />

    <inkscape:perspective
   id="perspective2490"
   inkscape:persp3d-origin="205.4895 : 61.996999 : 1"
   inkscape:vp_z="410.979 : 92.995499 : 1"
   inkscape:vp_y="0 : 1000 : 0"
   inkscape:vp_x="0 : 92.995499 : 1"
   sodipodi:type="inkscape:persp3d" />
</defs>
  <sodipodi:namedview
     pagecolor="#ffffff"
     bordercolor="#666666"
     borderopacity="1"
     objecttolerance="10"
     gridtolerance="10"
     guidetolerance="10"
     inkscape:pageopacity="0"
     inkscape:pageshadow="2"
     inkscape:window-width="1366"
     inkscape:window-height="705"
     id="namedview65"
     showgrid="false"
     inkscape:zoom="2.56"
     inkscape:cx="145.74742"
     inkscape:cy="63.719058"
     inkscape:window-x="-8"
     inkscape:window-y="-8"
     inkscape:window-maximized="1"
     inkscape:current-layer="svg2" />
  <g
     transform="matrix(0.05147372,0,0,-0.05147372,81.663816,26.075704)"
     id="g2505"
     clip-path="url(#id3)">
        <path
   style="fill:#f11e22;fill-rule:nonzero;stroke:none"
   id="path2507"
   d="m 508.58,305.914 -410.979,0 0,185.991 410.979,0 0,-185.991 z"
   inkscape:connector-curvature="0" />

        <path
   style="fill:#ffffff;fill-rule:nonzero;stroke:none"
   id="path2509"
   d="m 452.5,465.5 23,0 0,-109 19.5,0 0,-27.5 -42.5,0 0,136.5 z"
   inkscape:connector-curvature="0" />

        
        
        <path
   style="fill:#ffffff;fill-rule:nonzero;stroke:none"
   id="path2515"
   d="m 294,400.5 c 16.5,1 15,21.5 15,21.5 -2.5,20 -15,19 -15,19 l 0,-40.5 z m -53,-31.5 -7,41.5 -6,-41.5 13,0 z m -126.5,-39.5 0,136 31,0 11,-57 12.5,57 30,0 0,-122.5 19.5,122.5 30.5,0 19,-122.5 0,122 40.5,0 c 0,0 14,-2.5 21,-22 l -3,22.5 24.5,0 11.5,-70.5 12,70 69,0 0,-25.5 -20.5,0 0,-28 19.5,0 0,-28.5 -19,0 0,-26 20,0 0,-27.5 -44.5,0 0,131 -23,-131 -27.5,0 -14.5,87 c 0,0 -2.5,-24 -16,-35 l 17.5,-52 -24,0 -17,45.5 0,-45.5 -48.5,0 -2.5,13 -18.5,0 -4,-13 -46,0 0,50 -12,-50 -12.5,0 -11,49.5 0,-49 -25,-0.5 z"
   inkscape:connector-curvature="0" />

      </g>
  <g
     id="#ef0111ff"
     transform="translate(291.86395,-758.35977)" />
  <g
     id="#fefdfeff"
     transform="matrix(2.6698213,0,0,1.8765859,-782.26537,-934.40603)" />
  <g
     id="#231f20ff"
     transform="matrix(0.16767028,0,0,0.16767028,-9.6447436,-26.833246)">
    <path
       d="m 269.4,242.31 c 4.71,-0.08 9.42,-0.09 14.14,0 11.76,22.66 23.67,45.24 35.5,67.86 -5.42,0.02 -10.84,-0.01 -16.26,0.02 -2.58,-4.89 -5.01,-9.85 -7.44,-14.82 -13.07,-0.17 -26.16,-0.05 -39.24,-0.06 -2.43,4.94 -4.79,9.91 -7.21,14.85 -4.86,0.04 -9.7,0.01 -14.55,0.02 11.7,-22.61 23.41,-45.23 35.06,-67.87 m 6.24,13.8 c -4.38,8.96 -8.9,17.86 -13.37,26.78 8.98,0.01 17.96,0.06 26.93,-0.03 -4.33,-8.85 -8.63,-17.71 -12.84,-26.61 -0.18,-0.04 -0.54,-0.11 -0.72,-0.14 z"
       id="path25"
       inkscape:connector-curvature="0"
       style="fill:#231f20" />
    <path
       d="m 337.95,245.02 c 3.07,-2.52 7.26,-2.7 11.05,-2.76 14.68,0 29.36,-0.01 44.04,0 3.96,0.05 8.41,0.37 11.41,3.27 3.38,3.66 3.07,8.99 3.36,13.62 -4.71,1.15 -9.49,1.95 -14.24,2.87 -0.04,-2.54 -0.04,-5.07 -0.01,-7.6 -14.99,-0.02 -29.99,-0.05 -44.99,0.02 0.06,14.28 0.01,28.56 0.03,42.85 14.96,0.04 29.91,-0.05 44.87,0.04 0.17,-5 0.02,-10 0.09,-14.99 -7.83,-0.05 -15.65,0.02 -23.47,-0.04 0.06,-3.88 0.05,-7.77 0.01,-11.65 12.55,-0.03 25.09,-0.03 37.64,0 -0.09,8.45 0.08,16.91 -0.1,25.36 -0.14,3.68 -0.48,7.75 -3.04,10.63 -2.65,2.94 -6.88,3.31 -10.58,3.52 -15,0.05 -30,0 -44.99,0.03 -3.87,-0.12 -8.19,-0.31 -11.26,-2.99 -3.01,-2.81 -3.46,-7.24 -3.55,-11.13 -0.01,-13.36 -0.03,-26.71 0.01,-40.07 0.1,-3.87 0.65,-8.27 3.72,-10.98 z"
       id="path27"
       inkscape:connector-curvature="0"
       style="fill:#231f20" />
    <path
       d="m 434.3,242.28 c 21.15,-0.03 42.31,-0.03 63.47,0 -0.04,3.85 -0.03,7.71 -0.02,11.57 -16.31,0.04 -32.63,-0.01 -48.95,0.03 -0.03,5 -0.02,10 -0.01,15.01 9.53,0.02 19.06,-0.01 28.59,0.01 0.06,3.87 0.01,7.75 0.05,11.64 -9.55,0.05 -19.1,-0.01 -28.65,0.03 0,5.57 0,11.14 0.01,16.71 16.54,0.07 33.09,-0.07 49.64,0.08 -0.07,4.26 -0.02,8.54 -0.05,12.81 -21.37,-0.09 -42.77,0.24 -64.13,-0.17 0.14,-22.57 0.04,-45.15 0.05,-67.72 z"
       id="path29"
       inkscape:connector-curvature="0"
       style="fill:#231f20" />
    <path
       d="m 521.1,242.28 c 3.3,-0.04 6.6,-0.02 9.91,-0.03 14.55,13.36 29.12,26.7 43.67,40.07 2.48,2.16 4.74,4.56 6.85,7.1 -1.09,-15.68 -0.5,-31.41 -0.58,-47.12 4.36,-0.07 8.73,-0.06 13.1,-0.01 0.13,22.62 0.03,45.25 0.05,67.87 -3.33,0.03 -6.66,0.03 -9.99,0 -14.46,-13.29 -28.89,-26.62 -43.33,-39.93 -2.62,-2.3 -5.13,-4.73 -7.23,-7.5 1.21,15.77 0.37,31.62 0.6,47.44 -4.34,0.02 -8.69,0.02 -13.03,0 -0.01,-22.63 0.04,-45.26 -0.02,-67.89 z"
       id="path31"
       inkscape:connector-curvature="0"
       style="fill:#231f20" />
    <path
       d="m 607.72,242.26 c 23.82,-0.01 47.64,0.01 71.46,0 0.06,4.04 0.02,8.08 0.03,12.13 -9.55,0.06 -19.1,-0.05 -28.65,0.05 0.08,18.55 -0.02,37.1 0.05,55.64 -4.81,0.2 -9.62,0.06 -14.42,0.09 0.06,-18.53 -0.11,-37.05 0.08,-55.58 -9.5,-0.45 -19.04,-0.05 -28.55,-0.19 0,-4.05 -0.01,-8.09 0,-12.14 z"
       id="path33"
       inkscape:connector-curvature="0"
       style="fill:#231f20" />
    <path
       d="m 695.39,247.36 c 2.18,-4.14 7.32,-5 11.58,-5.07 13.02,-0.05 26.05,-0.05 39.08,0 4.27,0.09 9.35,1.06 11.57,5.17 1.67,3.38 2.24,7.58 1.57,11.16 -4.15,1.26 -8.38,2.18 -12.56,3.3 -0.01,-2.57 -0.01,-5.15 0.01,-7.72 -13.48,-0.03 -26.97,-0.04 -40.45,0 0.02,4.8 0.04,9.61 -0.01,14.41 13.26,0.07 26.52,-0.02 39.78,0.05 4.26,0.14 9.41,0.6 12,4.5 2.89,4.74 2.22,10.57 2.38,15.89 -0.16,5.42 0.54,11.29 -2.16,16.24 -2.44,4.19 -7.81,4.73 -12.17,4.88 -13.65,0.01 -27.31,0.02 -40.96,0 -4.2,-0.17 -9.26,-0.7 -11.77,-4.55 -2.4,-4 -2.51,-8.96 -2.18,-13.48 4.24,-0.91 8.45,-1.94 12.7,-2.85 -0.04,2.66 -0.05,5.33 -0.03,8 14.56,0.03 29.12,-0.04 43.68,0.03 0.15,-5.09 -0.02,-10.19 0.1,-15.28 -13.84,-0.45 -27.72,0.04 -41.57,-0.26 -3.76,-0.14 -8.11,-1.02 -10.26,-4.44 -2.58,-4.28 -2.18,-9.51 -2.28,-14.32 0.13,-5.23 -0.51,-10.84 1.95,-15.66 z"
       id="path35"
       inkscape:connector-curvature="0"
       style="fill:#231f20" />
    <path
       d="m 849.35,242.43 c 16.19,-0.39 32.41,-0.05 48.62,-0.18 4.4,0.03 9.35,-0.11 12.96,2.85 3.19,3 3.56,7.71 3.67,11.84 0.01,12.71 0,25.42 0,38.12 -0.1,3.94 -0.31,8.32 -2.96,11.47 -2.87,3.28 -7.59,3.47 -11.62,3.65 -15.99,-0.01 -31.97,0.02 -47.96,-0.02 -3.95,-0.18 -8.58,-0.62 -11.19,-4.01 -2.58,-3.43 -2.58,-8 -2.66,-12.1 0.01,-12.01 0,-24.03 0.01,-36.04 0.06,-3.9 0.15,-8.13 2.41,-11.48 1.93,-2.83 5.48,-3.81 8.72,-4.1 m 3.3,12.02 c 0.06,14.28 0.01,28.56 0.03,42.84 15.82,0 31.64,0.02 47.46,-0.01 -0.1,-14.31 0.23,-28.63 -0.16,-42.92 -15.78,0.14 -31.56,-0.05 -47.33,0.09 z"
       id="path37"
       inkscape:connector-curvature="0"
       style="fill:#231f20" />
    <path
       d="m 941.13,242.28 c 20.9,-0.04 41.8,-0.03 62.7,0 -0.04,3.96 -0.03,7.92 -0.03,11.89 -16.06,0.03 -32.12,0 -48.18,0.01 -0.02,5.89 -0.01,11.79 0,17.68 8.67,0.08 17.35,-0.15 26.02,0.12 0.02,4.09 -0.08,8.19 0.09,12.29 -8.71,0.33 -17.43,0.01 -26.13,0.16 0.07,8.53 -0.07,17.05 0.08,25.58 -4.84,0.37 -9.69,0.08 -14.52,0.16 -0.01,-22.63 0.04,-45.26 -0.03,-67.89 z"
       id="path39"
       inkscape:connector-curvature="0"
       style="fill:#231f20" />
    <path
       d="m 72.15,349.14 c 5.15,-6.49 14.13,-7.38 21.83,-7.72 25.67,-0.12 51.34,-0.03 77.02,-0.04 7.95,0.2 16.93,0.79 22.94,6.66 5.78,6.22 5.96,15.32 5.87,23.31 -8.56,2 -17.12,3.99 -25.66,6.05 0.01,-4.75 0.03,-9.49 0.01,-14.23 -27.19,-0.01 -54.38,-0.01 -81.56,0 0.04,8.89 -0.11,17.79 0.07,26.68 26.44,-0.07 52.88,0 79.32,-0.04 7.49,0.22 15.71,0.54 21.94,5.25 5.83,4.65 7.09,12.6 7.48,19.61 0.21,8.65 0.18,17.3 0.02,25.95 -0.34,6.76 -1.41,14.28 -6.56,19.18 -5.62,5.02 -13.57,5.71 -20.77,5.97 -27.38,0.08 -54.77,0.01 -82.15,0.03 -6.55,-0.07 -13.39,-0.41 -19.37,-3.37 -4,-1.93 -6.9,-5.65 -8.33,-9.79 -2.23,-6.31 -2.12,-13.11 -2.03,-19.72 8.54,-1.69 17.04,-3.52 25.57,-5.28 -0.04,4.92 -0.02,9.83 -0.02,14.75 29.35,0 58.71,0.04 88.07,-0.01 -0.09,-9.43 -0.03,-18.86 -0.04,-28.29 -11.59,-0.22 -23.18,0.06 -34.77,-0.11 -16.6,-0.18 -33.21,0.48 -49.81,-0.21 -7.37,-0.39 -15.88,-2.18 -20.05,-8.95 -5.04,-8.69 -3.73,-19.16 -3.94,-28.78 0.08,-9.05 -0.69,-19.17 4.92,-26.9 z"
       id="path41"
       inkscape:connector-curvature="0"
       style="fill:#231f20" />
    <path
       d="m 276.42,341.38 c 9.68,-0.01 19.36,-0.06 29.04,0.02 -0.07,16.06 0.01,32.12 -0.04,48.18 30.16,0.02 60.33,0.04 90.5,-0.01 -0.04,-16.06 -0.09,-32.12 0.02,-48.18 9.78,0.08 19.59,-0.28 29.36,0.17 -0.21,41.41 -0.02,82.82 -0.09,124.23 -9.78,0 -19.55,0.06 -29.32,-0.03 0,-17.8 -0.04,-35.61 0.02,-53.41 -30.16,-0.05 -60.32,-0.02 -90.48,-0.02 0.01,17.82 0,35.65 0,53.47 -9.67,0 -19.34,0.01 -29,0 0,-41.48 0.02,-82.95 -0.01,-124.42 z"
       id="path43"
       inkscape:connector-curvature="0"
       style="fill:#231f20" />
    <path
       d="m 511.57,341.42 c 9.68,-0.11 19.37,-0.04 29.05,-0.04 -0.03,41.47 -0.02,82.94 0,124.41 -9.68,0.02 -19.35,0.01 -29.01,0.01 -0.03,-41.46 0.04,-82.92 -0.04,-124.38 z"
       id="path45"
       inkscape:connector-curvature="0"
       style="fill:#231f20" />
    <path
       d="m 629.57,341.41 c 42.57,0 85.16,-0.23 127.73,0.12 -0.12,6.98 -0.12,13.97 0,20.95 -32.87,0.38 -65.76,0.03 -98.64,0.17 0.02,9.22 0,18.45 0.01,27.67 19.12,0.01 38.24,0.03 57.36,-0.01 0.23,7.09 0.19,14.21 0.02,21.3 -19.13,-0.02 -38.26,-0.02 -57.39,0 0.01,10.26 0.01,20.52 0,30.78 33.26,0.04 66.51,-0.03 99.77,0.03 -0.05,7.8 -0.01,15.59 -0.03,23.39 -42.93,-0.01 -85.87,0 -128.8,-0.01 -0.02,-41.46 0.04,-82.93 -0.03,-124.39 z"
       id="path47"
       inkscape:connector-curvature="0"
       style="fill:#231f20" />
    <path
       d="m 840,341.32 c 9.64,0.12 19.27,-0.01 28.91,0.06 -0.07,33.67 -0.01,67.33 -0.03,100.99 31.16,0.08 62.32,-0.02 93.48,0.05 -0.06,7.8 0.04,15.6 -0.05,23.4 -40.83,-0.05 -81.65,0.02 -122.47,-0.03 0.1,-41.49 -0.24,-83 0.16,-124.47 z"
       id="path49"
       inkscape:connector-curvature="0"
       style="fill:#231f20" />
    <path
       d="m 1038.02,341.37 c 27.67,0.01 55.35,-0.03 83.03,0.02 16.17,0.33 33.01,3.53 46.38,13.14 10.45,7.36 17.5,18.95 20.22,31.37 3.36,15.6 2.24,32.48 -4.71,46.99 -5.31,11.03 -14.3,20.31 -25.34,25.67 -18.96,8.56 -40.32,7.05 -60.6,7.24 -19.69,-0.02 -39.38,0.05 -59.07,-0.03 0.01,-41.47 -0.15,-82.94 0.09,-124.4 m 29.04,22.26 c 0.08,26.25 0.06,52.5 0.01,78.75 12.64,0.05 25.28,0.01 37.92,0.02 11.55,-0.15 23.44,-0.74 34.29,-5.08 7.19,-2.86 13.5,-8.29 16.61,-15.47 3.67,-8.41 4.03,-17.89 3.1,-26.89 -1.01,-9.02 -4.95,-18.1 -12.41,-23.6 -8.12,-6.14 -18.66,-7.77 -28.59,-7.76 -16.98,0.02 -33.96,-0.04 -50.93,0.03 z"
       id="path51"
       inkscape:connector-curvature="0"
       style="fill:#231f20" />
    <path
       d="m 226.22,437.26 c 6.62,-0.23 13.25,-0.04 19.88,-0.1 1.7,-0.14 3.84,0.33 4.41,2.19 1.12,4.48 0.37,9.15 0.58,13.71 -0.17,3.71 0.54,7.6 -0.79,11.17 -1.43,1.99 -4.18,1.43 -6.3,1.59 -6.26,-0.12 -12.55,0.17 -18.81,-0.14 -2.52,-0.59 -2.86,-3.55 -2.82,-5.71 0.07,-6.35 -0.16,-12.7 0.12,-19.04 -0.02,-2.04 1.68,-3.78 3.73,-3.67 z"
       id="path53"
       inkscape:connector-curvature="0"
       style="fill:#231f20" />
    <path
       d="m 453.26,437.35 c 7.24,-0.39 14.52,-0.15 21.77,-0.14 2.5,-0.13 3.73,2.55 3.65,4.7 0.1,6.58 0.17,13.18 -0.03,19.76 0.06,2.07 -1.46,4.14 -3.67,4.04 -7.03,0.2 -14.08,0.08 -21.11,0.06 -2.55,0.22 -3.87,-2.48 -3.73,-4.66 -0.12,-6.38 -0.1,-12.76 -0.01,-19.13 -0.12,-2.01 0.77,-4.54 3.13,-4.63 z"
       id="path55"
       inkscape:connector-curvature="0"
       style="fill:#231f20" />
    <path
       d="m 575.37,437.5 c 7.19,-0.74 14.48,-0.17 21.71,-0.33 2.37,-0.39 4.42,1.63 4.38,3.96 0.31,6.81 0.25,13.64 0.04,20.45 0.11,2.05 -1.32,4.16 -3.52,4.11 -7.31,0.2 -14.64,0.16 -21.94,0.02 -2.3,-0.17 -3.04,-2.74 -3.15,-4.65 -0.13,-6.02 -0.02,-12.04 -0.05,-18.06 0.08,-1.99 0.19,-4.86 2.53,-5.5 z"
       id="path57"
       inkscape:connector-curvature="0"
       style="fill:#231f20" />
    <path
       d="m 785.37,437.46 c 7.2,-0.65 14.48,-0.16 21.71,-0.28 2.29,-0.32 4.15,1.59 4.2,3.83 0.35,5.66 0.04,11.34 0.16,17.01 -0.13,2.34 0.35,5.15 -1.48,6.98 -1.47,0.92 -3.3,0.71 -4.93,0.81 -6.31,-0.07 -12.63,0.1 -18.94,-0.07 -2.43,-0.01 -3.39,-2.75 -3.37,-4.77 -0.13,-5.99 -0.04,-11.98 -0.04,-17.96 0.01,-2.04 0.2,-5.08 2.69,-5.55 z"
       id="path59"
       inkscape:connector-curvature="0"
       style="fill:#231f20" />
    <path
       d="m 988.28,437.27 c 7.22,-0.19 14.46,-0.17 21.68,-0.01 2.74,0.25 3.2,3.48 3.24,5.68 0.02,6.03 0.11,12.06 -0.05,18.09 -0.01,1.99 -0.89,4.55 -3.25,4.61 -7.28,0.34 -14.59,0.14 -21.87,0.11 -2.47,0.1 -3.6,-2.61 -3.53,-4.69 -0.06,-6.65 -0.16,-13.31 0.06,-19.96 -0.05,-2.07 1.57,-3.95 3.72,-3.83 z"
       id="path61"
       inkscape:connector-curvature="0"
       style="fill:#231f20" />
    <path
       d="m 1202.18,437.25 c 6.92,-0.18 13.87,-0.1 20.81,-0.05 2.53,-0.22 3.93,2.46 3.8,4.69 0.1,6.65 0.18,13.31 -0.05,19.95 0.07,2.12 -1.62,4.02 -3.79,3.88 -7.01,0.17 -14.03,0.09 -21.03,0.05 -2.51,0.17 -3.77,-2.52 -3.68,-4.66 -0.07,-6.69 -0.18,-13.4 0.06,-20.08 -0.06,-2.14 1.72,-3.91 3.88,-3.78 z"
       id="path63"
       inkscape:connector-curvature="0"
       style="fill:#231f20" />
  </g>
</svg>
